<?xml version="1.0" encoding="utf-8" ?>
<!DOCTYPE svg PUBLIC "-//W3C//DTD SVG 1.1//EN" "http://www.w3.org/Graphics/SVG/1.1/DTD/svg11.dtd">
<svg height="886" version="1.1" width="1251" xmlns="http://www.w3.org/2000/svg">
<ellipse cx="463" cy="554" fill="#000000" rx="81.0" ry="26.0" stroke="#000000" stroke-width="1"/>
<ellipse cx="463" cy="554" fill="#ffffff" rx="80.0" ry="25.0" stroke="#ffffff" stroke-width="1"/>
<text font-family="Dialog" font-size="12" x="395" y="555">
Gerenciar Estagiários</text>
<ellipse cx="224" cy="463" fill="#000000" rx="66.0" ry="23.0" stroke="#000000" stroke-width="1"/>
<ellipse cx="224" cy="463" fill="#ffffff" rx="65.0" ry="22.0" stroke="#ffffff" stroke-width="1"/>
<text font-family="Dialog" font-size="12" x="172" y="464">
Incluir Estagiário</text>
<ellipse cx="408" cy="439" fill="#000000" rx="66.0" ry="23.0" stroke="#000000" stroke-width="1"/>
<ellipse cx="408" cy="439" fill="#ffffff" rx="65.0" ry="22.0" stroke="#ffffff" stroke-width="1"/>
<text font-family="Dialog" font-size="12" x="356" y="440">
Editar Estagiário</text>
<ellipse cx="625" cy="456" fill="#000000" rx="75.0" ry="24.0" stroke="#000000" stroke-width="1"/>
<ellipse cx="625" cy="456" fill="#ffffff" rx="74.0" ry="23.0" stroke="#ffffff" stroke-width="1"/>
<text font-family="Dialog" font-size="12" x="571" y="457">
Excluir Estagiário</text>
<line fill="#000000" stroke="#000000" stroke-width="1" x1="418" x2="420" y1="461" y2="465"/>
<line fill="#000000" stroke="#000000" stroke-width="1" x1="422" x2="424" y1="470" y2="474"/>
<line fill="#000000" stroke="#000000" stroke-width="1" x1="426" x2="428" y1="479" y2="483"/>
<line fill="#000000" stroke="#000000" stroke-width="1" x1="430" x2="433" y1="488" y2="492"/>
<line fill="#000000" stroke="#000000" stroke-width="1" x1="435" x2="437" y1="497" y2="501"/>
<line fill="#000000" stroke="#000000" stroke-width="1" x1="439" x2="441" y1="506" y2="510"/>
<line fill="#000000" stroke="#000000" stroke-width="1" x1="443" x2="446" y1="515" y2="519"/>
<line fill="#000000" stroke="#000000" stroke-width="1" x1="448" x2="450" y1="524" y2="528"/>
<line fill="#000000" stroke="#000000" stroke-width="1" x1="438" x2="450" y1="520" y2="528"/>
<line fill="#000000" stroke="#000000" stroke-width="1" x1="451" x2="450" y1="514" y2="528"/>
<text font-family="Dialog" font-size="12" x="350" y="510">
&lt;&lt;extend&gt;&gt;</text>
<line fill="#000000" stroke="#000000" stroke-width="1" x1="589" x2="585" y1="477" y2="479"/>
<line fill="#000000" stroke="#000000" stroke-width="1" x1="581" x2="577" y1="482" y2="484"/>
<line fill="#000000" stroke="#000000" stroke-width="1" x1="572" x2="568" y1="487" y2="489"/>
<line fill="#000000" stroke="#000000" stroke-width="1" x1="564" x2="559" y1="492" y2="495"/>
<line fill="#000000" stroke="#000000" stroke-width="1" x1="555" x2="551" y1="497" y2="500"/>
<line fill="#000000" stroke="#000000" stroke-width="1" x1="546" x2="542" y1="502" y2="505"/>
<line fill="#000000" stroke="#000000" stroke-width="1" x1="538" x2="533" y1="507" y2="510"/>
<line fill="#000000" stroke="#000000" stroke-width="1" x1="529" x2="525" y1="513" y2="515"/>
<line fill="#000000" stroke="#000000" stroke-width="1" x1="520" x2="516" y1="518" y2="520"/>
<line fill="#000000" stroke="#000000" stroke-width="1" x1="512" x2="507" y1="523" y2="525"/>
<line fill="#000000" stroke="#000000" stroke-width="1" x1="503" x2="500" y1="528" y2="530"/>
<line fill="#000000" stroke="#000000" stroke-width="1" x1="506" x2="500" y1="517" y2="530"/>
<line fill="#000000" stroke="#000000" stroke-width="1" x1="513" x2="500" y1="529" y2="530"/>
<text font-family="Dialog" font-size="12" x="476" y="471">
&lt;&lt;extend&gt;&gt;</text>
<line fill="#000000" stroke="#000000" stroke-width="1" x1="268" x2="272" y1="479" y2="480"/>
<line fill="#000000" stroke="#000000" stroke-width="1" x1="277" x2="282" y1="482" y2="484"/>
<line fill="#000000" stroke="#000000" stroke-width="1" x1="286" x2="291" y1="486" y2="487"/>
<line fill="#000000" stroke="#000000" stroke-width="1" x1="296" x2="300" y1="489" y2="491"/>
<line fill="#000000" stroke="#000000" stroke-width="1" x1="305" x2="310" y1="493" y2="495"/>
<line fill="#000000" stroke="#000000" stroke-width="1" x1="314" x2="319" y1="496" y2="498"/>
<line fill="#000000" stroke="#000000" stroke-width="1" x1="324" x2="328" y1="500" y2="502"/>
<line fill="#000000" stroke="#000000" stroke-width="1" x1="333" x2="338" y1="504" y2="505"/>
<line fill="#000000" stroke="#000000" stroke-width="1" x1="342" x2="347" y1="507" y2="509"/>
<line fill="#000000" stroke="#000000" stroke-width="1" x1="352" x2="356" y1="511" y2="513"/>
<line fill="#000000" stroke="#000000" stroke-width="1" x1="361" x2="366" y1="514" y2="516"/>
<line fill="#000000" stroke="#000000" stroke-width="1" x1="370" x2="375" y1="518" y2="520"/>
<line fill="#000000" stroke="#000000" stroke-width="1" x1="380" x2="384" y1="522" y2="523"/>
<line fill="#000000" stroke="#000000" stroke-width="1" x1="389" x2="394" y1="525" y2="527"/>
<line fill="#000000" stroke="#000000" stroke-width="1" x1="398" x2="403" y1="529" y2="531"/>
<line fill="#000000" stroke="#000000" stroke-width="1" x1="408" x2="411" y1="532" y2="534"/>
<line fill="#000000" stroke="#000000" stroke-width="1" x1="397" x2="411" y1="536" y2="534"/>
<line fill="#000000" stroke="#000000" stroke-width="1" x1="402" x2="411" y1="523" y2="534"/>
<text font-family="Dialog" font-size="12" x="277" y="528">
&lt;&lt;extend&gt;&gt;</text>
<ellipse cx="786" cy="601" fill="#000000" rx="76.0" ry="25.0" stroke="#000000" stroke-width="1"/>
<ellipse cx="786" cy="601" fill="#ffffff" rx="75.0" ry="24.0" stroke="#ffffff" stroke-width="1"/>
<text font-family="Dialog" font-size="12" x="724" y="602">
Gerenciar Amostras</text>
<ellipse cx="1027" cy="534" fill="#000000" rx="61.0" ry="22.0" stroke="#000000" stroke-width="1"/>
<ellipse cx="1027" cy="534" fill="#ffffff" rx="60.0" ry="21.0" stroke="#ffffff" stroke-width="1"/>
<text font-family="Dialog" font-size="12" x="980" y="535">
Incluir Amostra</text>
<ellipse cx="1067" cy="590" fill="#000000" rx="61.0" ry="22.0" stroke="#000000" stroke-width="1"/>
<ellipse cx="1067" cy="590" fill="#ffffff" rx="60.0" ry="21.0" stroke="#ffffff" stroke-width="1"/>
<text font-family="Dialog" font-size="12" x="1020" y="591">
Editar Amostra</text>
<line fill="#000000" stroke="#000000" stroke-width="1" x1="978" x2="974" y1="547" y2="548"/>
<line fill="#000000" stroke="#000000" stroke-width="1" x1="969" x2="964" y1="549" y2="550"/>
<line fill="#000000" stroke="#000000" stroke-width="1" x1="959" x2="954" y1="552" y2="553"/>
<line fill="#000000" stroke="#000000" stroke-width="1" x1="949" x2="945" y1="554" y2="556"/>
<line fill="#000000" stroke="#000000" stroke-width="1" x1="940" x2="935" y1="557" y2="558"/>
<line fill="#000000" stroke="#000000" stroke-width="1" x1="930" x2="925" y1="560" y2="561"/>
<line fill="#000000" stroke="#000000" stroke-width="1" x1="920" x2="915" y1="562" y2="564"/>
<line fill="#000000" stroke="#000000" stroke-width="1" x1="911" x2="906" y1="565" y2="566"/>
<line fill="#000000" stroke="#000000" stroke-width="1" x1="901" x2="896" y1="568" y2="569"/>
<line fill="#000000" stroke="#000000" stroke-width="1" x1="891" x2="886" y1="570" y2="572"/>
<line fill="#000000" stroke="#000000" stroke-width="1" x1="881" x2="877" y1="573" y2="574"/>
<line fill="#000000" stroke="#000000" stroke-width="1" x1="872" x2="867" y1="576" y2="577"/>
<line fill="#000000" stroke="#000000" stroke-width="1" x1="862" x2="857" y1="578" y2="580"/>
<line fill="#000000" stroke="#000000" stroke-width="1" x1="852" x2="847" y1="581" y2="582"/>
<line fill="#000000" stroke="#000000" stroke-width="1" x1="852" x2="843" y1="574" y2="584"/>
<line fill="#000000" stroke="#000000" stroke-width="1" x1="856" x2="843" y1="587" y2="584"/>
<text font-family="Dialog" font-size="12" x="827" y="551">
&lt;&lt;extend&gt;&gt;</text>
<line fill="#000000" stroke="#000000" stroke-width="1" x1="1006" x2="1001" y1="594" y2="594"/>
<line fill="#000000" stroke="#000000" stroke-width="1" x1="996" x2="991" y1="594" y2="594"/>
<line fill="#000000" stroke="#000000" stroke-width="1" x1="986" x2="981" y1="594" y2="594"/>
<line fill="#000000" stroke="#000000" stroke-width="1" x1="976" x2="971" y1="594" y2="594"/>
<line fill="#000000" stroke="#000000" stroke-width="1" x1="966" x2="961" y1="594" y2="594"/>
<line fill="#000000" stroke="#000000" stroke-width="1" x1="956" x2="951" y1="594" y2="594"/>
<line fill="#000000" stroke="#000000" stroke-width="1" x1="946" x2="941" y1="594" y2="594"/>
<line fill="#000000" stroke="#000000" stroke-width="1" x1="936" x2="931" y1="594" y2="594"/>
<line fill="#000000" stroke="#000000" stroke-width="1" x1="926" x2="921" y1="594" y2="594"/>
<line fill="#000000" stroke="#000000" stroke-width="1" x1="916" x2="911" y1="594" y2="594"/>
<line fill="#000000" stroke="#000000" stroke-width="1" x1="906" x2="901" y1="594" y2="594"/>
<line fill="#000000" stroke="#000000" stroke-width="1" x1="896" x2="891" y1="594" y2="594"/>
<line fill="#000000" stroke="#000000" stroke-width="1" x1="886" x2="881" y1="594" y2="594"/>
<line fill="#000000" stroke="#000000" stroke-width="1" x1="876" x2="871" y1="594" y2="594"/>
<line fill="#000000" stroke="#000000" stroke-width="1" x1="866" x2="861" y1="594" y2="594"/>
<line fill="#000000" stroke="#000000" stroke-width="1" x1="873" x2="861" y1="587" y2="594"/>
<line fill="#000000" stroke="#000000" stroke-width="1" x1="873" x2="861" y1="601" y2="594"/>
<text font-family="Dialog" font-size="12" x="900" y="614">
&lt;&lt;extend&gt;&gt;</text>
<text font-family="Dialog" font-size="12" x="18" y="700">
Coordenador</text>
<ellipse cx="59" cy="649" fill="#000000" rx="8.0" ry="7.5" stroke="#000000" stroke-width="1"/>
<ellipse cx="59" cy="649" fill="#ffffff" rx="7.0" ry="6.5" stroke="#ffffff" stroke-width="1"/>
<line fill="#000000" stroke="#000000" stroke-width="1" x1="59" x2="59" y1="657" y2="672"/>
<line fill="#000000" stroke="#000000" stroke-width="1" x1="49" x2="69" y1="662" y2="662"/>
<line fill="#000000" stroke="#000000" stroke-width="1" x1="59" x2="54" y1="672" y2="687"/>
<line fill="#000000" stroke="#000000" stroke-width="1" x1="59" x2="64" y1="672" y2="687"/>
<text font-family="Dialog" font-size="12" x="1170" y="700">
Estagiário</text>
<ellipse cx="1201" cy="649" fill="#000000" rx="8.0" ry="7.5" stroke="#000000" stroke-width="1"/>
<ellipse cx="1201" cy="649" fill="#ffffff" rx="7.0" ry="6.5" stroke="#ffffff" stroke-width="1"/>
<line fill="#000000" stroke="#000000" stroke-width="1" x1="1201" x2="1201" y1="657" y2="672"/>
<line fill="#000000" stroke="#000000" stroke-width="1" x1="1191" x2="1211" y1="662" y2="662"/>
<line fill="#000000" stroke="#000000" stroke-width="1" x1="1201" x2="1196" y1="672" y2="687"/>
<line fill="#000000" stroke="#000000" stroke-width="1" x1="1201" x2="1206" y1="672" y2="687"/>
<polyline fill="none" points="1198,641 1198,624 790,624 790,625" stroke="#000000" stroke-width="1"/>
<polyline fill="none" points="61,641 62,552 382,553" stroke="#000000" stroke-width="1"/>
<polyline fill="none" points="66,644 118,600 710,600" stroke="#000000" stroke-width="1"/>
<ellipse cx="545" cy="664" fill="#000000" rx="75.0" ry="24.0" stroke="#000000" stroke-width="1"/>
<ellipse cx="545" cy="664" fill="#ffffff" rx="74.0" ry="23.0" stroke="#ffffff" stroke-width="1"/>
<text font-family="Dialog" font-size="12" x="484" y="665">
Controlar Amostras</text>
<ellipse cx="542" cy="790" fill="#000000" rx="64.0" ry="22.0" stroke="#000000" stroke-width="1"/>
<ellipse cx="542" cy="790" fill="#ffffff" rx="63.0" ry="21.0" stroke="#ffffff" stroke-width="1"/>
<text font-family="Dialog" font-size="12" x="493" y="791">
Retirar Amostra</text>
<line fill="#000000" stroke="#000000" stroke-width="1" x1="543" x2="543" y1="768" y2="763"/>
<line fill="#000000" stroke="#000000" stroke-width="1" x1="543" x2="543" y1="758" y2="753"/>
<line fill="#000000" stroke="#000000" stroke-width="1" x1="543" x2="543" y1="748" y2="743"/>
<line fill="#000000" stroke="#000000" stroke-width="1" x1="543" x2="543" y1="738" y2="733"/>
<line fill="#000000" stroke="#000000" stroke-width="1" x1="543" x2="543" y1="728" y2="723"/>
<line fill="#000000" stroke="#000000" stroke-width="1" x1="543" x2="543" y1="718" y2="713"/>
<line fill="#000000" stroke="#000000" stroke-width="1" x1="543" x2="543" y1="708" y2="703"/>
<line fill="#000000" stroke="#000000" stroke-width="1" x1="543" x2="543" y1="698" y2="693"/>
<line fill="#000000" stroke="#000000" stroke-width="1" x1="543" x2="543" y1="688" y2="687"/>
<line fill="#000000" stroke="#000000" stroke-width="1" x1="550" x2="543" y1="699" y2="687"/>
<line fill="#000000" stroke="#000000" stroke-width="1" x1="536" x2="543" y1="699" y2="687"/>
<text font-family="Dialog" font-size="12" x="476" y="763">
&lt;&lt;extend&gt;&gt;</text>
<ellipse cx="771" cy="791" fill="#000000" rx="69.0" ry="23.0" stroke="#000000" stroke-width="1"/>
<ellipse cx="771" cy="791" fill="#ffffff" rx="68.0" ry="22.0" stroke="#ffffff" stroke-width="1"/>
<text font-family="Dialog" font-size="12" x="716" y="792">
Devolver Amostra</text>
<polyline fill="none" points="619,663 1191,662" stroke="#000000" stroke-width="1"/>
<polyline fill="none" points="470,663 69,662" stroke="#000000" stroke-width="1"/>
<rect fill="none" height="512" stroke="#000000" stroke-width="1" width="1064" x="102" y="360"/>
<text font-family="Dialog" font-size="36" x="534" y="402">
A-LADIA</text>
<ellipse cx="853" cy="494" fill="#000000" rx="63.0" ry="22.0" stroke="#000000" stroke-width="1"/>
<ellipse cx="853" cy="494" fill="#ffffff" rx="62.0" ry="21.0" stroke="#ffffff" stroke-width="1"/>
<text font-family="Dialog" font-size="12" x="805" y="495">
Excluir Amostra</text>
<line fill="#000000" stroke="#000000" stroke-width="1" x1="839" x2="837" y1="515" y2="519"/>
<line fill="#000000" stroke="#000000" stroke-width="1" x1="834" x2="831" y1="523" y2="527"/>
<line fill="#000000" stroke="#000000" stroke-width="1" x1="829" x2="826" y1="532" y2="536"/>
<line fill="#000000" stroke="#000000" stroke-width="1" x1="823" x2="821" y1="540" y2="545"/>
<line fill="#000000" stroke="#000000" stroke-width="1" x1="818" x2="815" y1="549" y2="553"/>
<line fill="#000000" stroke="#000000" stroke-width="1" x1="813" x2="810" y1="557" y2="562"/>
<line fill="#000000" stroke="#000000" stroke-width="1" x1="807" x2="805" y1="566" y2="570"/>
<line fill="#000000" stroke="#000000" stroke-width="1" x1="802" x2="801" y1="575" y2="576"/>
<line fill="#000000" stroke="#000000" stroke-width="1" x1="801" x2="801" y1="562" y2="576"/>
<line fill="#000000" stroke="#000000" stroke-width="1" x1="813" x2="801" y1="569" y2="576"/>
<text font-family="Dialog" font-size="12" x="739" y="517">
&lt;&lt;extend&gt;&gt;</text>
<line fill="#000000" stroke="#000000" stroke-width="1" x1="702" x2="697" y1="790" y2="790"/>
<line fill="#000000" stroke="#000000" stroke-width="1" x1="692" x2="687" y1="790" y2="790"/>
<line fill="#000000" stroke="#000000" stroke-width="1" x1="682" x2="677" y1="790" y2="790"/>
<line fill="#000000" stroke="#000000" stroke-width="1" x1="672" x2="667" y1="790" y2="790"/>
<line fill="#000000" stroke="#000000" stroke-width="1" x1="662" x2="657" y1="790" y2="790"/>
<line fill="#000000" stroke="#000000" stroke-width="1" x1="652" x2="647" y1="790" y2="790"/>
<line fill="#000000" stroke="#000000" stroke-width="1" x1="642" x2="637" y1="790" y2="790"/>
<line fill="#000000" stroke="#000000" stroke-width="1" x1="632" x2="627" y1="790" y2="790"/>
<line fill="#000000" stroke="#000000" stroke-width="1" x1="622" x2="617" y1="790" y2="790"/>
<line fill="#000000" stroke="#000000" stroke-width="1" x1="612" x2="607" y1="790" y2="790"/>
<line fill="#000000" stroke="#000000" stroke-width="1" x1="618" x2="606" y1="783" y2="790"/>
<line fill="#000000" stroke="#000000" stroke-width="1" x1="618" x2="606" y1="797" y2="790"/>
<text font-family="Dialog" font-size="12" x="613" y="768">
&lt;&lt;extend&gt;&gt;</text>
</svg>
